<?xml version="1.0" encoding="UTF-8"?>
<svg xmlns="http://www.w3.org/2000/svg" viewBox="0 0 769 601">
  <g id="Capa_1" data-name="Capa 1">
    <rect width="769" height="601" fill="#fc4b08"/>
  </g>
  <g id="Capa_2" data-name="Capa 2">
    <g>
      <path d="M466.82,216.2c-1.79-16.05,19.45-18.03,21.62-3.59.94,6.61-3.68,12.18-8.87,13.03-6.61,1.23-12.08-3.87-12.74-9.44h0ZM277.83,149.27c-.85,1.98.19,25.77.09,30.49-.47,24.92-1.6,50.31-3.12,75.14-.28,4.25-.85,11.61-.57,15.58,2.27,1.32,4.44,1.6,6.14,3.59,1.51,1.89,2.83,4.53,2.08,7.83-1.51,1.6-6.61,1.79-9.35,2.27.85,1.6,1.89,2.93,3.12,3.87,2.17,1.7,3.3.47,4.72,2.27,2.93,4.44-6.32,22.18-20.77,2.93-4.91-6.61-6.04-5.57-7.65-9.06-1.23-2.83-1.32-3.02-3.02-5.38-5.1-7.27-14.63-23.22-19.16-31.25-1.42-2.36-4.44-9.35-5.95-10.86,0,5.66,1.79,47.58-.76,50.31-1.79,1.89-6.14,1.42-8.12.09-10.57-6.99-9.16-81.09-9.72-94.96-2.83.66-9.16,4.53-15.48,5.38l-6.42.85c-1.32.66.28,63.34-3.12,76.08-1.42,5.19-6.51,8.12-13.03,6.23-6.04-1.89-6.99-5.57-7.55-12.65-1.79-23.5-.66-54.47.09-78.44.57-16.9.57-41.16,2.74-57.58.76-5.85,1.04-12.93,7.93-11.89,5.19.76,8.87,5.1,9.82,10.19,1.13,6.04.85,12.74,1.42,18.78l.57-.47c.47-.38.09.09.76-.76,4.15-5.19,7.46-13.31,17.18-18.78,4.53-2.55,9.63-3.68,15.39-1.42,5.57,2.17,7.08,4.81,10.48,8.4,2.55-1.51,5.29-3.87,8.5-5.76,2.93-1.7,6.89-3.68,10.48-4.44,9.06-1.89,15.58,5.29,17.94,11.33,4.81-.19,15.95-.28,19.16,1.98,1.23.94,4.06,4.25,3.02,7.17-1.04,3.3-5.38,1.89-7.83,2.93h0ZM426.6,204.02c2.74-.19,12.37-1.42,13.88-2.83.76-1.51,1.89-18.22,2.17-21.52,1.32-13.12,4.15-28.79,7.27-41.44.57-2.64,1.89-7.27,3.21-8.87,2.36-3.02,6.8-1.32,8.78.57,5.1,4.81,4.34,11.52,3.78,19.92-.47,7.55-1.32,15.01-1.79,22.47-1.04,14.82-1.98,30.21-3.68,44.84-2.08,18.41-3.4,50.6-2.08,69.57.38,5.57,4.44,16.43-8.02,13.78-6.23-1.32-6.8-10.48-7.36-16.99-1.13-14.54-1.98-31.72-2.17-46.35-.19-7.74.19-16.43-.28-23.98-3.12-.09-12.65,1.51-13.97,3.3-1.6,2.08-1.6,12.37-1.89,15.95-.66,8.12,0,27.38-1.98,33.89-1.32,4.63-7.55,6.23-12.18,3.4-4.53-2.74-4.63-6.51-4.81-12.93-.09-5.29-1.04-30.11-2.45-33.42-3.21.19-4.91,1.7-8.97.57-2.45-.76-4.91-2.64-5-5.48-.19-4.15,5.38-5.38,8.97-6.51.66-.19,3.59-1.04,3.96-1.7.85-2.83.38-29.64.66-35.68.85-17.18,2.74-19.26,4.44-32.85-4.44,0-24.07,1.42-26.62,2.64v37.85c-.66,22.94-2.17,51.35-4.25,74.2-.57,6.04-.85,12.27-1.23,18.41-.47,5.95.38,13.5-4.91,14.73-7.36,1.7-9.35-2.55-9.72-9.06-1.51-32-2.55-64.1-1.04-96.1.28-6.14.66-12.18,1.32-18.22.38-3.21,2.36-15.58,1.89-17.65-3.12.57-6.7,2.36-9.82,3.21-5.66,1.6-7.36-2.17-9.44-2.55-.57,19.07-1.23,38.14-1.6,57.2-.19,11.33,0,47.76-4.06,55.41-3.68,6.99-12.65,7.65-18.5-.28-13.22-17.75-15.86-65.23-18.6-70.61-.94,13.97-.47,31.81.28,45.78.38,7.46.76,15.1,1.04,22.47.19,5.57,2.17,17.75-1.32,21.05-2.08,1.89-6.42,1.98-8.97,0s-2.74-4.72-3.02-8.68c-.38-7.46-.66-14.91-.94-22.28-.94-20.48-.85-71.65,2.36-90.72,1.04-5.95,2.55-15.01,8.21-15.39,6.51-.38,9.82,6.61,11.61,11.89,3.78,11.33,9.16,42.29,12.46,57.58,1.13,5.19,2.74,14.07,4.63,18.41,1.32-6.7,2.74-46.82,3.21-56.73.19-5.1.76-38.23,3.68-41.16,1.23-1.23,3.3-1.79,5.38-.94,2.17.76,2.74,2.27,4.25,3.59,10.19-7.83,60.79-9.44,75.42-5.76,3.87.94,7.17,3.68,7.93,7.55.38,1.98-.66,2.93-.94,4.06-.09.19.66,17.37.66,19.92,0,13.59-.76,29.17.19,42.48h0ZM262.16,125.11c-2.55-.57-3.12-2.27-7.83-3.96-9.44-3.4-19.63,2.93-26.81,7.65-5.76-3.87-10.67-9.63-22.09-7.17-5.38,1.23-13.03,6.04-16.71,10.38-1.42,1.6-.38,1.51-2.27,1.98-1.6-19.26-17.84-22.66-23.69-16.71-6.14,6.14-5.85,29.36-6.61,39.17-.47,4.72.47,10.67-.19,15.2l-.76,29.64c-.09,2.74-.57,3.78-.57,6.99l-.38,38.23c0,5.38.28,9.25.38,14.54.28,9.25.47,18.03,8.21,22.66,3.87,2.36,7.27,2.08,13.22,2.08,5.95-4.25,9.72-3.21,10.67-16.99.57-8.68,1.13-17.37,1.42-25.96.19-4.34.38-8.78.57-13.12.19-7.17-.57-6.04,2.36-11.71,1.13-2.27,8.59-16.99,9.63-17.56-.19,9.63,1.32,16.24-1.6,24.17-8.12,21.33-12.46,43.71-12.55,67.21,5.19,2.36,9.35,4.15,13.78,7.65,32,25.68,42.1,109.59,33.7,113.18-4.34,1.89-7.74-8.02-9.06-10.86-2.17-4.81-4.15-9.16-6.51-13.97-3.96-8.02-10.95-19.82-18.5-22.66,4.63,16.14,21.43,41.91,32.19,54.75,2.64,3.02,6.61,8.59,9.82,10.57.66-29.36,2.83-58.9,6.89-87.51.28-1.79,1.13-8.68,1.7-9.91,1.6-3.49,21.81-9.25,25.58-9.91,14.91-2.93,28.22.76,36.81,8.4,4.34,3.87,7.17,6.8,10.76,12.65,3.02,5.1,5.29,10.38,7.17,16.61,9.63,30.77,6.32,81.28-8.4,110.92-1.51,2.93-3.02,5.1-4.44,7.83l8.59,3.21c9.44,2.83,19.35,5.38,29.17,6.42-.09-6.8-1.7-20.58-2.08-29.64-.76-21.05-.76-42.29.19-63.25.19-5.19.47-10.1.76-15.29.19-4.15,1.13-11.52.76-15.2-6.7,2.45-10.95,7.36-16.71,10.86-2.64-5.85-5-20.01-5.57-27.37-.57-6.42-1.32-33.32.76-39.36.47-1.23.76-1.23,2.17-2.08,17.56-10.86,52.3-16.24,72.59-14.82,5.1.28,10.1.76,14.91,1.7,3.59.66,3.68.38,4.91,3.49,4.53,11.23,3.87,25.68,2.27,37.57-1.04,7.65-3.21,21.43-6.14,27.38-6.99-1.23-18.78-3.49-25.86-2.45-2.36,25.39-3.02,106.01.76,129.98,10.95-.66,19.82-2.93,29.83-4.63.47-13.69.19-27.37.76-41.06,1.32-32.94,2.45-65.98,6.42-98.74l2.36-13.22c.47-2.36.38-2.27,2.27-3.3,19.07-10.86,48.05-10.67,71.93-6.8,5.85.94,7.74,1.6,9.06,11.89,1.51,12.84-1.23,46.16-6.42,55.88-9.72-.47-15.2-6.89-43.89-3.96l-.66,11.99c6.42-.94,19.63-3.4,24.45,1.04,1.89,3.4,1.6,23.32,1.42,28.41-.38,8.78-1.04,18.69-3.68,26.53-6.51.66-18.5,2.45-23.79,4.72l.09,12.08c7.08-1.51,28.22-16.33,34.36-20.96,5.47-4.15,10.38-8.4,15.2-12.74,2.64-2.45,4.34-4.91,6.99-7.08,2.64-2.27,4.53-4.63,6.8-7.27,8.4-9.82,15.58-19.82,23.03-32.57,2.74-4.81,17.27-33.98,16.52-39.08-18.97-1.79-27,20.39-36.81,32.38-2.64,3.21-6.42,4.63-7.55-.66-1.42-6.89.57-18.97,1.98-25.49,5.95-28.04,24.54-56.26,51.35-60.79l.09-7.46c-19.63,2.93-12.37-15.39-14.35-29.07.09,6.99-8.12,15.39-17.09,13.03-3.87-1.04-6.8-4.44-8.59-6.89-1.89-2.93-3.02-6.32-4.63-9.44l-.76-1.23c0,9.53,4.63,28.41-6.61,31.72-5,1.51-6.7-.19-10.1-1.51-4.44,5.29-6.89,2.27-13.4,5.57-3.87,2.08-7.46,6.51-13.78,3.68-8.97-4.06-12.55-19.54-1.23-23.41.38-29.17-1.04-58.62.09-87.88.28-9.06,1.42-18.6,1.6-27.56-1.89-2.27-3.3-2.64-4.91-5.76-1.23-2.55-1.98-5.66-1.32-8.87,1.32-6.42,7.08-7.36,13.97-7.65-.09-.09-.28-.38-.28-.28l-2.45-1.98c-6.7-4.81-13.5-8.87-20.77-12.84-46.63-25.58-107.33-30.21-157.74-12.37-9.25,3.3-18.5,7.17-26.71,11.61l-18.12,10.86c-3.02,2.08-2.74,2.55-7.65,1.98-1.04-1.51-4.25-5.47-4.63-6.42h0Z" fill="#fff" fill-rule="evenodd"/>
      <path d="M246.78,495.42c-1.98-44.37-.38-109.88,6.7-154.34,1.23-7.74.85-5.95,7.55-8.78,3.78-1.6,7.65-3.02,11.8-4.06,22.37-5.76,36.53,2.74,45.59,15.67,17.84,25.39,15.95,77.78,6.42,110.16-7.65,26.15-23.98,46.35-51.07,46.44-11.04.09-17.65-2.55-27-5.1h0ZM231.96,406.12c-5.57-8.12-20.01-55.88-42.95-44.46-3.96,1.98-11.89,9.72-16.61,13.78-4.63,3.96-11.52,9.16-18.22,12.08-9.72,4.34-15.95,2.55-19.73-5.85-5.57-12.65-5-40.4-1.89-54.56,3.78-17.65,11.89-27.66,29.64-31.06,8.87-1.79,19.26-2.17,27.09,1.42,18.69,8.5,30.3,35.21,35.87,55.13,4.06,14.82,8.21,36.91,6.8,53.52h0ZM513.07,385.83c-18.41-2.83-22.37-6.23-45.31-2.74l-1.13,21.52c8.31-2.83,16.05-4.06,25.2-2.08.94,7.65,1.79,43.42-1.98,47.86-.57.47-.19.28-1.32.57-.28.09-1.23.19-1.7.28-1.04.09-2.08.19-3.21.47-3.59.57-16.05,3.4-18.22,4.53-1.04,8.21.94,40.5,1.32,50.97-10.57,3.02-21.24,4.91-32.76,1.79-1.6-40.02,1.6-120.26,6.51-160.19l2.17-13.31c.47-2.45.38-2.17,2.45-3.21,4.34-2.17,10.01-4.15,15.67-5.29,14.54-3.02,33.42-2.83,48.61-.38,1.51.28,3.02.47,4.44.76,2.36.47,2.27.38,3.02,2.64,4.34,13.97-.47,42.48-3.78,55.79h0ZM532.23,381.49c-1.98-25.02,11.61-57.49,31.72-72.31,11.42-8.4,25.96-9.82,42.76-6.99,15.76,2.55,25.11,8.78,29.07,22.84,3.59,13.03,3.78,36.06-6.23,42.38-14.73,9.35-44.93-16.9-54.66-19.35-23.41-5.95-37.95,30.11-42.67,33.42h0ZM421.88,358.27c-4.15,0-8.59-1.51-12.65-1.7-3.87-.19-11.04-.47-14.54.09-2.45,25.96-2.36,89.77-.76,117.33.19,4.63,1.32,11.61,1.13,15.86-6.7,3.96-26.9,3.59-34.64.66-2.36-14.35-3.3-49.56-3.02-65.13.28-14.25.57-35.21,1.79-49.46.38-4.06,1.23-12.27,1.04-16.33-3.59.76-7.36,2.45-10.29,4.15-2.45,1.42-6.89,4.81-8.87,5.57-4.06-6.99-5.95-48.99-3.02-57.49,4.25-4.15,23.69-9.63,31.53-11.14,16.99-3.3,30.68-4.72,48.52-2.64,5.66.66,6.23.76,7.08,3.49,5.38,16.05.76,41.72-3.3,56.73h0ZM512.22,140.78c2.83.47,5.19,3.4,5.47,6.32.85,6.51-4.81,3.49-6.51,5.29-.85,1.04,0,26.24,0,30.11,0,18.97-1.13,41.16-1.98,60.32-.28,4.91-.28,9.82-.57,14.82-.28,4.44-.94,10.76-.38,15.1,4.06,2.17,8.31,5.19,6.51,11.71-4.06,1.89-6.61-.28-15.1,5.76-6.42,4.53-10.67-4.15-10.48-8.12.28-3.96,4.53-4.91,6.89-6.51.66-3.96.09-40.31-.09-47.29-.28-15.58.09-31.15.57-46.63.19-7.46.85-15.1,1.42-22.47.57-6.8-.38-4.44-3.68-7.93-1.89-1.98-3.49-5.1-2.36-8.4,1.42-4.34,15.48-3.02,20.3-2.08h0ZM552.06,233.28c2.08-10.1,2.55-88.64,4.81-95.43,1.23-3.4,4.34-4.15,6.99-1.6,3.59,3.49,1.89,13.78,1.79,19.73-.38,14.35-.57,28.98-.94,43.42-.38,11.14-.19,55.22-3.3,63.81-2.27,6.04-8.68,8.31-13.69,3.12-8.4-8.59-12.93-38.04-14.63-52.11-.38-3.21-.85-6.61-1.32-9.91-.19-1.42-.76-8.4-1.79-9.44-.19,15.29-.28,30.96.28,46.07.47,11.42,1.6,24.26,1.51,35.49-.09,3.12-.85,5.66-2.83,6.61-2.64,1.23-5.85.19-7.08-1.51-2.27-3.02-1.98-11.89-2.17-16.52-1.23-26.43-1.23-67.97.66-93.64.47-6.61.94-15.48,3.4-21.05,3.68-8.5,10.19-2.74,12.55,2.83,5.38,12.65,11.71,70.04,15.76,80.14h0ZM604.07,155.97c3.4-7.17,9.16-17.94,13.97-22.47,4.72-4.53,10.38-1.32,8.31,4.06-.66,1.51-2.83,4.15-3.78,5.66-1.13,1.7-2.27,3.4-3.4,5.48-1.98,3.59-11.04,21.9-10.95,25.49,10.86,7.36,13.12,32.28,13.69,49.46.28,9.72,1.04,19.63,1.51,29.45.19,5,.38,10.19.94,15.2.38,4.06,2.08,9.82.09,13.12-1.32,2.27-5.76,7.65-10.19,4.81-2.17-1.42-3.4-8.68-3.96-11.89-2.08-14.25-4.81-42.57-5.47-57.02-.19-4.44.28-25.77-2.83-28.89-2.93,10.29-8.97,22.47-9.63,34.27-.57,10.76.47,51.26-7.08,58.81-3.78,3.78-12.18,7.17-12.55-1.79-.76-13.69.28-29.26.66-43.04.85-27.19-.19-57.3,3.68-83.82.66-4.91,1.7-14.63,3.96-18.03,3.59-5.66,11.8-4.34,12.27,3.3.57,10.48-1.23,35.3-.28,42.76l11.04-24.92ZM262.16,125.11c.38.94,3.59,4.91,4.63,6.42,4.91.57,4.63.09,7.65-1.98l18.12-10.86c8.21-4.44,17.46-8.31,26.71-11.61,50.41-17.84,111.1-13.22,157.74,12.37,7.27,3.96,14.07,8.02,20.77,12.84l2.45,1.98c0-.09.19.19.28.28-6.89.28-12.65,1.23-13.97,7.65-.66,3.21.09,6.32,1.32,8.87,1.6,3.12,3.02,3.49,4.91,5.76-.19,8.97-1.32,18.5-1.6,27.56-1.13,29.26.28,58.71-.09,87.88-11.33,3.87-7.74,19.35,1.23,23.41,6.32,2.83,9.91-1.6,13.78-3.68,6.51-3.3,8.97-.28,13.4-5.57,3.4,1.32,5.1,3.02,10.1,1.51,11.23-3.3,6.61-22.18,6.61-31.72l.76,1.23c1.6,3.12,2.74,6.51,4.63,9.44,1.79,2.45,4.72,5.85,8.59,6.89,8.97,2.36,17.18-6.04,17.09-13.03,1.98,13.69-5.29,32,14.35,29.07l-.09,7.46c-26.81,4.53-45.4,32.76-51.35,60.79-1.42,6.51-3.4,18.6-1.98,25.49,1.13,5.29,4.91,3.87,7.55.66,9.82-11.99,17.84-34.17,36.81-32.38.76,5.1-13.78,34.27-16.52,39.08-7.46,12.74-14.63,22.75-23.03,32.57-2.27,2.64-4.15,5-6.8,7.27-2.64,2.17-4.34,4.63-6.99,7.08-4.81,4.34-9.72,8.59-15.2,12.74-6.14,4.63-27.28,19.45-34.36,20.96l-.09-12.08c5.29-2.27,17.27-4.06,23.79-4.72,2.64-7.83,3.3-17.75,3.68-26.53.19-5.1.47-25.02-1.42-28.41-4.81-4.44-18.03-1.98-24.45-1.04l.66-11.99c28.7-2.93,34.17,3.49,43.89,3.96,5.19-9.72,7.93-43.04,6.42-55.88-1.32-10.29-3.21-10.95-9.06-11.89-23.88-3.87-52.86-4.06-71.93,6.8-1.89,1.04-1.79.94-2.27,3.3l-2.36,13.22c-3.96,32.76-5.1,65.79-6.42,98.74-.57,13.69-.28,27.38-.76,41.06-10.01,1.7-18.88,3.96-29.83,4.63-3.78-23.98-3.12-104.59-.76-129.98,7.08-1.04,18.88,1.23,25.86,2.45,2.93-5.95,5.1-19.73,6.14-27.38,1.6-11.89,2.27-26.34-2.27-37.57-1.23-3.12-1.32-2.83-4.91-3.49-4.81-.94-9.82-1.42-14.91-1.7-20.3-1.42-55.03,3.96-72.59,14.82-1.42.85-1.7.85-2.17,2.08-2.08,6.04-1.32,32.94-.76,39.36.57,7.36,2.93,21.52,5.57,27.37,5.76-3.49,10.01-8.4,16.71-10.86.38,3.68-.57,11.04-.76,15.2-.28,5.19-.57,10.1-.76,15.29-.94,20.96-.94,42.2-.19,63.25.38,9.06,1.98,22.84,2.08,29.64-9.82-1.04-19.73-3.59-29.17-6.42l-8.59-3.21c1.42-2.74,2.93-4.91,4.44-7.83,14.73-29.64,18.03-80.14,8.4-110.92-1.89-6.23-4.15-11.52-7.17-16.61-3.59-5.85-6.42-8.78-10.76-12.65-8.59-7.65-21.9-11.33-36.81-8.4-3.78.66-23.98,6.42-25.58,9.91-.57,1.23-1.42,8.12-1.7,9.91-4.06,28.6-6.23,58.15-6.89,87.51-3.21-1.98-7.17-7.55-9.82-10.57-10.76-12.84-27.56-38.61-32.19-54.75,7.55,2.83,14.54,14.63,18.5,22.66,2.36,4.81,4.34,9.16,6.51,13.97,1.32,2.83,4.72,12.74,9.06,10.86,8.4-3.59-1.7-87.51-33.7-113.18-4.44-3.49-8.59-5.29-13.78-7.65.09-23.5,4.44-45.88,12.55-67.21,2.93-7.93,1.42-14.54,1.6-24.17-1.04.57-8.5,15.29-9.63,17.56-2.93,5.66-2.17,4.53-2.36,11.71-.19,4.34-.38,8.78-.57,13.12-.28,8.59-.85,17.27-1.42,25.96-.94,13.78-4.72,12.74-10.67,16.99l.09,4.63c-1.6.09-1.79.38-3.3.47-7.83.57-14.73,1.04-22.09,4.53-6.99,3.4-11.99,7.83-16.05,14.25-7.17,11.04-6.7,24.45-8.4,36.91-.28,2.45-.09,5-.09,7.36-.09,10.01,1.7,25.49,6.14,32.19,10.29,15.67,28.79,3.3,40.12-5.57l12.27-10.57c1.42-1.42,2.36-2.83,4.53-3.4,1.89,3.68,3.4,8.31,5.1,12.08,8.5,19.07,18.97,33.98,31.81,49.94,2.93,3.59,14.25,14.82,14.82,15.58,1.42,2.17.57,4.34.57,7.36,0,5.66-.19,11.99.38,16.9.38,3.21,0,18.97.57,25.11.38,3.59-.09,4.72,3.12,5.76,14.16,4.44,30.3,7.08,44.37,2.55,4.72-1.51,7.83-3.12,11.61-5.66,3.4-2.27,6.42-5.57,9.53-7.74l10.57,3.49c31.53,10.48,68.06,12.18,100.34,6.04,1.32-.19,5-1.13,5.95-1.13,2.64,0,1.79,2.36,1.79,5.19,0,1.98-.19,5.1,0,6.99.28,2.36,1.04,3.12,3.12,3.78,8.68,2.83,34.27.94,37.38-3.02.85-1.13.28-10.01-.09-12.74-.66-4.34-.28-9.53-.28-14.16,2.08-.47,7.74-3.59,9.82-4.72,14.35-7.46,27.66-16.8,40.02-27.19l3.96-3.49c7.93-6.99,14.54-15.01,21.52-22.84,12.08-13.59,20.67-30.02,28.51-46.25,1.7-3.49,8.02-18.5,8.31-21.62,2.55.19,9.35,5.19,11.71,6.51,4.06,2.36,7.55,4.06,12.18,5.95,26.9,10.76,35.78-1.42,35.87-29.26.09-10.01-2.36-21.05-8.31-28.6-6.51-8.12-19.82-13.4-31.43-13.88-9.06-.47-10.29.76-10.29-3.21s-.66-10.1.19-13.97c.66-2.55,1.6-4.25,1.98-6.89l2.08-16.14c.09-1.6-.09-2.93.09-4.53l.85-12.74c0-3.68.47-5.66.47-8.87,0-2.93-.19-6.51,0-9.35.19-2.74,1.32-5.47,1.42-7.93h.94c0,11.52,1.89,31.43,3.4,42.29,1.51,10.86,1.51,33.89,11.04,35.21,7.83,1.04,12.37-3.49,14.63-8.21,2.74-5.47.38-14.54-.09-20.77-.19-1.79,0-3.78-.09-5.57l-1.32-21.43c-.19-2.08.09-4.06-.09-6.04-.76-6.32-.66-15.01-1.32-21.62-.94-9.63-3.02-19.35-6.99-28.04-5.19-11.33-8.12-2.64,1.51-22.66.76-1.51.94-2.55,1.7-3.87l6.7-10.67c3.21-4.81,4.53-12.55-2.36-15.67-12.37-5.57-20.77,15.67-25.86,24.45-.47.85-.47.66-.94,1.79-1.04,1.89.28.76-1.32,1.98,0-9.53,3.12-23.69-6.7-27.85-5.95-2.55-12.55,0-15.48,5.66-3.68,7.36-4.15,18.31-4.91,26.81-.19,1.6-.09,1.32-.94,2.36,0-6.99.94-15.29.47-22.47-.76-10.1-14.54-14.35-18.41-4.34-2.08,5.38-1.98,24.73-2.64,32.38h-.94c-.66-2.74-3.96-4.81-5.1-7.46-1.89-4.34-3.49-16.99-12.74-18.97-1.98-.38-4.44.28-6.14-.38l-17.37-13.97c-28.6-20.58-60.04-33.98-95.15-38.89-3.68-.47-7.93-1.04-11.52-1.13-7.93-.09-16.9-1.6-24.45-.57-3.87.57-7.93.19-11.89.76-3.3.38-7.46.85-11.14,1.32-20.2,3.02-40.68,8.87-58.71,17.94-8.59,4.34-16.61,8.59-24.45,13.78-1.7,1.13-6.42,4.63-8.02,5.1h0Z" fill-rule="evenodd"/>
      <path d="M426.6,204.02c-.94-13.31-.19-28.89-.19-42.48,0-2.55-.76-19.73-.66-19.92.28-1.13,1.32-2.08.94-4.06-.76-3.87-4.06-6.61-7.93-7.55-14.63-3.68-65.23-2.08-75.42,5.76-1.51-1.32-2.08-2.83-4.25-3.59-2.08-.85-4.15-.28-5.38.94-2.93,2.93-3.49,36.06-3.68,41.16-.47,9.91-1.89,50.03-3.21,56.73-1.89-4.34-3.49-13.22-4.63-18.41-3.3-15.29-8.68-46.25-12.46-57.58-1.79-5.29-5.1-12.27-11.61-11.89-5.66.38-7.17,9.44-8.21,15.39-3.21,19.07-3.3,70.23-2.36,90.72.28,7.36.57,14.82.94,22.28.28,3.96.47,6.7,3.02,8.68s6.89,1.89,8.97,0c3.49-3.3,1.51-15.48,1.32-21.05-.28-7.36-.66-15.01-1.04-22.47-.76-13.97-1.23-31.81-.28-45.78,2.74,5.38,5.38,52.86,18.6,70.61,5.85,7.93,14.82,7.27,18.5.28,4.06-7.65,3.87-44.08,4.06-55.41.38-19.07,1.04-38.14,1.6-57.2,2.08.38,3.78,4.15,9.44,2.55,3.12-.85,6.7-2.64,9.82-3.21.47,2.08-1.51,14.44-1.89,17.65-.66,6.04-1.04,12.08-1.32,18.22-1.51,32-.47,64.1,1.04,96.1.38,6.51,2.36,10.76,9.72,9.06,5.29-1.23,4.44-8.78,4.91-14.73.38-6.14.66-12.37,1.23-18.41,2.08-22.84,3.59-51.26,4.25-74.2v-37.85c2.55-1.23,22.18-2.64,26.62-2.64-1.7,13.59-3.59,15.67-4.44,32.85-.28,6.04.19,32.85-.66,35.68-.38.66-3.3,1.51-3.96,1.7-3.59,1.13-9.16,2.36-8.97,6.51.09,2.83,2.55,4.72,5,5.48,4.06,1.13,5.76-.38,8.97-.57,1.42,3.3,2.36,28.13,2.45,33.42.19,6.42.28,10.19,4.81,12.93,4.63,2.83,10.86,1.23,12.18-3.4,1.98-6.51,1.32-25.77,1.98-33.89.28-3.59.28-13.88,1.89-15.95,1.32-1.79,10.86-3.4,13.97-3.3.47,7.55.09,16.24.28,23.98.19,14.63,1.04,31.81,2.17,46.35.57,6.51,1.13,15.67,7.36,16.99,12.46,2.64,8.4-8.21,8.02-13.78-1.32-18.97,0-51.16,2.08-69.57,1.7-14.63,2.64-30.02,3.68-44.84.47-7.46,1.32-14.91,1.79-22.47.57-8.4,1.32-15.1-3.78-19.92-1.98-1.89-6.42-3.59-8.78-.57-1.32,1.6-2.64,6.23-3.21,8.87-3.12,12.65-5.95,28.32-7.27,41.44-.28,3.3-1.42,20.01-2.17,21.52-1.51,1.42-11.14,2.64-13.88,2.83h0Z" fill-rule="evenodd"/>
      <path d="M253.01,251.41c-7.65-15.1-10.29-21.9-17.18-37.48-1.51-3.59.09-3.78,1.89-5.85,4.81-5.76,7.36-8.4,11.71-15.39,6.7-10.76,10.1-21.9,11.71-24.45.47,5.1-.94,16.9-1.13,22.84-.94,22.94.66,49.18.09,72.4l-7.08-12.08ZM183.06,184.01c2.17-14.07,16.14-38.7,25.2-42.48-1.23,8.59-1.04,25.68-4.34,29.45-3.12,3.4-13.88,12.37-20.86,13.03h0ZM223.74,191.56c-.38-2.93.09-7.17,0-10.38,0-8.02,6.51-7.46,8.12-22.84.76-7.27-2.55-7.36,6.32-14.16,2.27-1.79,9.25-7.36,13.5-6.32,1.23,8.5-7.36,24.35-10.76,30.02-4.25,7.17-8.02,11.89-12.55,18.22-.76,1.13-1.51,2.08-2.17,3.02-1.04,1.42-.76,1.7-2.45,2.45h0ZM277.83,149.27c2.45-1.04,6.8.38,7.83-2.93,1.04-2.93-1.79-6.23-3.02-7.17-3.21-2.27-14.35-2.17-19.16-1.98-2.36-6.04-8.87-13.22-17.94-11.33-3.59.76-7.55,2.74-10.48,4.44-3.21,1.89-5.95,4.25-8.5,5.76-3.4-3.59-4.91-6.23-10.48-8.4-5.76-2.27-10.86-1.13-15.39,1.42-9.72,5.48-13.03,13.59-17.18,18.78-.66.85-.28.38-.76.76l-.57.47c-.57-6.04-.28-12.74-1.42-18.78-.94-5.1-4.63-9.44-9.82-10.19-6.89-1.04-7.17,6.04-7.93,11.89-2.17,16.43-2.17,40.69-2.74,57.58-.76,23.98-1.89,54.94-.09,78.44.57,7.08,1.51,10.76,7.55,12.65,6.51,1.89,11.61-1.04,13.03-6.23,3.4-12.74,1.79-75.42,3.12-76.08l6.42-.85c6.32-.85,12.65-4.72,15.48-5.38.57,13.88-.85,87.98,9.72,94.96,1.98,1.32,6.32,1.79,8.12-.09,2.55-2.74.76-44.65.76-50.31,1.51,1.51,4.53,8.5,5.95,10.86,4.53,8.02,14.07,23.98,19.16,31.25,1.7,2.36,1.79,2.55,3.02,5.38,1.6,3.49,2.74,2.45,7.65,9.06,14.44,19.26,23.69,1.51,20.77-2.93-1.42-1.79-2.55-.57-4.72-2.27-1.23-.94-2.27-2.27-3.12-3.87,2.74-.47,7.83-.66,9.35-2.27.76-3.3-.57-5.95-2.08-7.83-1.7-1.98-3.87-2.27-6.14-3.59-.28-3.96.28-11.33.57-15.58,1.51-24.83,2.64-50.22,3.12-75.14.09-4.72-.94-28.51-.09-30.49h0Z" fill-rule="evenodd"/>
      <path d="M275.85,452.66c-1.89-6.32.19-40.78.85-49.18.66-7.46,1.13-16.05,2.36-23.32.66-3.4,5.95-3.96,9.16-3.78,4.15.19,6.8,2.55,8.31,4.81,8.59,12.84,10.38,73.54-20.67,71.46h0ZM246.78,495.42c9.35,2.55,15.95,5.19,27,5.1,27.09-.09,43.42-20.3,51.07-46.44,9.53-32.38,11.42-84.77-6.42-110.16-9.06-12.93-23.22-21.43-45.59-15.67-4.15,1.04-8.02,2.45-11.8,4.06-6.7,2.83-6.32,1.04-7.55,8.78-7.08,44.46-8.68,109.97-6.7,154.34h0Z" fill="#fefd01" fill-rule="evenodd"/>
      <path d="M421.88,358.27c4.06-15.01,8.68-40.68,3.3-56.73-.85-2.74-1.42-2.83-7.08-3.49-17.84-2.08-31.53-.66-48.52,2.64-7.83,1.51-27.28,6.99-31.53,11.14-2.93,8.5-1.04,50.5,3.02,57.49,1.98-.76,6.42-4.15,8.87-5.57,2.93-1.7,6.7-3.4,10.29-4.15.19,4.06-.66,12.27-1.04,16.33-1.23,14.25-1.51,35.21-1.79,49.46-.28,15.58.66,50.79,3.02,65.13,7.74,2.93,27.94,3.3,34.64-.66.19-4.25-.94-11.23-1.13-15.86-1.6-27.56-1.7-91.38.76-117.33,3.49-.57,10.67-.28,14.54-.09,4.06.19,8.5,1.7,12.65,1.7h0Z" fill="#ff1cff" fill-rule="evenodd"/>
      <path d="M513.07,385.83c3.3-13.31,8.12-41.82,3.78-55.79-.76-2.27-.66-2.17-3.02-2.64-1.42-.28-2.93-.47-4.44-.76-15.2-2.45-34.08-2.64-48.61.38-5.66,1.13-11.33,3.12-15.67,5.29-2.08,1.04-1.98.76-2.45,3.21l-2.17,13.31c-4.91,39.93-8.12,120.17-6.51,160.19,11.52,3.12,22.18,1.23,32.76-1.79-.38-10.48-2.36-42.76-1.32-50.97,2.17-1.13,14.63-3.96,18.22-4.53,1.13-.28,2.17-.38,3.21-.47.47-.09,1.42-.19,1.7-.28,1.13-.28.76-.09,1.32-.57,3.78-4.44,2.93-40.21,1.98-47.86-9.16-1.98-16.9-.76-25.2,2.08l1.13-21.52c22.94-3.49,26.9-.09,45.31,2.74h0Z" fill="#5afefe" fill-rule="evenodd"/>
      <path d="M231.96,406.12c1.42-16.61-2.74-38.7-6.8-53.52-5.57-19.92-17.18-46.63-35.87-55.13-7.83-3.59-18.22-3.21-27.09-1.42-17.75,3.4-25.86,13.4-29.64,31.06-3.12,14.16-3.68,41.91,1.89,54.56,3.78,8.4,10.01,10.19,19.73,5.85,6.7-2.93,13.59-8.12,18.22-12.08,4.72-4.06,12.65-11.8,16.61-13.78,22.94-11.42,37.38,36.34,42.95,44.46h0Z" fill="#fefd01" fill-rule="evenodd"/>
      <path d="M593.02,180.89c-.94-7.46.85-32.28.28-42.76-.47-7.65-8.68-8.97-12.27-3.3-2.27,3.4-3.3,13.12-3.96,18.03-3.87,26.53-2.83,56.64-3.68,83.82-.38,13.78-1.42,29.36-.66,43.04.38,8.97,8.78,5.57,12.55,1.79,7.55-7.55,6.51-48.05,7.08-58.81.66-11.8,6.7-23.98,9.63-34.27,3.12,3.12,2.64,24.45,2.83,28.89.66,14.44,3.4,42.76,5.47,57.02.57,3.21,1.79,10.48,3.96,11.89,4.44,2.83,8.87-2.55,10.19-4.81,1.98-3.3.28-9.06-.09-13.12-.57-5-.76-10.19-.94-15.2-.47-9.82-1.23-19.73-1.51-29.45-.57-17.18-2.83-42.1-13.69-49.46-.09-3.59,8.97-21.9,10.95-25.49,1.13-2.08,2.27-3.78,3.4-5.48.94-1.51,3.12-4.15,3.78-5.66,2.08-5.38-3.59-8.59-8.31-4.06-4.81,4.53-10.57,15.29-13.97,22.47l-11.04,24.92Z" fill="#fefefe" fill-rule="evenodd"/>
      <path d="M532.23,381.49c4.72-3.3,19.26-39.36,42.67-33.42,9.72,2.45,39.93,28.7,54.66,19.35,10.01-6.32,9.82-29.36,6.23-42.38-3.96-14.07-13.31-20.3-29.07-22.84-16.8-2.83-31.34-1.42-42.76,6.99-20.11,14.82-33.7,47.29-31.72,72.31h0Z" fill="#5afefe" fill-rule="evenodd"/>
      <path d="M552.06,233.28c-4.06-10.1-10.38-67.49-15.76-80.14-2.36-5.57-8.87-11.33-12.55-2.83-2.45,5.57-2.93,14.44-3.4,21.05-1.89,25.68-1.89,67.21-.66,93.64.19,4.63-.09,13.5,2.17,16.52,1.23,1.7,4.44,2.74,7.08,1.51,1.98-.94,2.74-3.49,2.83-6.61.09-11.23-1.04-24.07-1.51-35.49-.57-15.1-.47-30.77-.28-46.07,1.04,1.04,1.6,8.02,1.79,9.44.47,3.3.94,6.7,1.32,9.91,1.7,14.07,6.23,43.52,14.63,52.11,5,5.19,11.42,2.93,13.69-3.12,3.12-8.59,2.93-52.67,3.3-63.81.38-14.44.57-29.07.94-43.42.09-5.95,1.79-16.24-1.79-19.73-2.64-2.55-5.76-1.79-6.99,1.6-2.27,6.8-2.74,85.33-4.81,95.43h0Z" fill="#fefefe" fill-rule="evenodd"/>
      <path d="M496.08,275.57c-2.36,1.6-6.61,2.55-6.89,6.51-.19,3.96,4.06,12.65,10.48,8.12,8.5-6.04,11.04-3.87,15.1-5.76,1.79-6.51-2.45-9.53-6.51-11.71-.57-4.34.09-10.67.38-15.1.28-5,.28-9.91.57-14.82.85-19.16,1.98-41.35,1.98-60.32,0-3.87-.85-29.07,0-30.11,1.7-1.79,7.36,1.23,6.51-5.29-.28-2.93-2.64-5.85-5.47-6.32-4.81-.94-18.88-2.27-20.3,2.08-1.13,3.3.47,6.42,2.36,8.4,3.3,3.49,4.25,1.13,3.68,7.93-.57,7.36-1.23,15.01-1.42,22.47-.47,15.48-.85,31.06-.57,46.63.19,6.99.76,43.33.09,47.29h0Z" fill="#fefefe" fill-rule="evenodd"/>
      <path d="M260.09,263.49c.57-23.22-1.04-49.46-.09-72.4.19-5.95,1.6-17.75,1.13-22.84-1.6,2.55-5,13.69-11.71,24.45-4.34,6.99-6.89,9.63-11.71,15.39-1.79,2.08-3.4,2.27-1.89,5.85,6.89,15.58,9.53,22.37,17.18,37.48l7.08,12.08Z" fill="#fefefe" fill-rule="evenodd"/>
      <path d="M279.63,448.13c5.29,1.13,10.29-5.76,11.99-9.06,7.27-13.97,8.12-44.37,1.98-54.56-1.42-2.45-3.12-4.06-6.7-3.87-4.63.09-3.87,1.98-4.34,6.42-.76,6.51-1.32,13.03-1.79,19.63-.94,14.07-1.51,27.19-1.13,41.44h0Z" fill="#fefefe" fill-rule="evenodd"/>
      <path d="M279.63,448.13c-.38-14.25.19-27.38,1.13-41.44.47-6.61,1.04-13.12,1.79-19.63.47-4.44-.28-6.32,4.34-6.42,3.59-.19,5.29,1.42,6.7,3.87,6.14,10.19,5.29,40.59-1.98,54.56-1.7,3.3-6.7,10.19-11.99,9.06h0ZM275.85,452.66c31.06,2.08,29.26-58.62,20.67-71.46-1.51-2.27-4.15-4.63-8.31-4.81-3.21-.19-8.5.38-9.16,3.78-1.23,7.27-1.7,15.86-2.36,23.32-.66,8.4-2.74,42.86-.85,49.18h0Z" fill-rule="evenodd"/>
      <path d="M223.74,191.56c1.7-.76,1.42-1.04,2.45-2.45.66-.94,1.42-1.89,2.17-3.02,4.53-6.32,8.31-11.04,12.55-18.22,3.4-5.66,11.99-21.52,10.76-30.02-4.25-1.04-11.23,4.53-13.5,6.32-8.87,6.8-5.57,6.89-6.32,14.16-1.6,15.39-8.12,14.82-8.12,22.84.09,3.21-.38,7.46,0,10.38h0Z" fill="#fefefe" fill-rule="evenodd"/>
      <path d="M183.06,184.01c6.99-.66,17.75-9.63,20.86-13.03,3.3-3.78,3.12-20.86,4.34-29.45-9.06,3.78-23.03,28.41-25.2,42.48h0Z" fill="#fefefe" fill-rule="evenodd"/>
      <path d="M484.94,216.67c3.3-10.76-11.99-14.91-14.73-4.91-2.93,10.48,11.42,15.86,14.73,4.91h0Z" fill="#fe3310" fill-rule="evenodd"/>
      <path d="M484.94,216.67c-3.3,10.95-17.65,5.57-14.73-4.91,2.74-10.01,18.03-5.85,14.73,4.91h0ZM466.82,216.2c.66,5.57,6.14,10.67,12.74,9.44,5.19-.85,9.82-6.42,8.87-13.03-2.17-14.44-23.41-12.46-21.62,3.59h0Z" fill="#040404" fill-rule="evenodd"/>
    </g>
  </g>
</svg>