<?xml version="1.0" encoding="UTF-8"?>
<svg xmlns="http://www.w3.org/2000/svg" viewBox="0 0 1920 600">
  <g id="Capa_1" data-name="Capa 1">
    <rect width="1920" height="600" fill="#fc4b08"/>
  </g>
  <g id="Capa_2" data-name="Capa 2">
    <g>
      <path d="M1058.73,200.1c-2.14-19.13,23.18-21.49,25.77-4.28,1.13,7.88-4.39,14.52-10.58,15.53-7.88,1.46-14.4-4.61-15.19-11.25h0ZM833.43,120.31c-1.01,2.36.23,30.72.11,36.35-.56,29.71-1.91,59.98-3.71,89.58-.34,5.06-1.01,13.84-.68,18.57,2.7,1.58,5.29,1.91,7.31,4.28,1.8,2.25,3.38,5.4,2.48,9.34-1.8,1.91-7.88,2.14-11.14,2.7,1.01,1.91,2.25,3.49,3.71,4.61,2.59,2.03,3.94.56,5.63,2.7,3.49,5.29-7.54,26.45-24.76,3.49-5.85-7.88-7.2-6.64-9.12-10.8-1.46-3.38-1.58-3.6-3.6-6.41-6.08-8.67-17.44-27.68-22.84-37.25-1.69-2.81-5.29-11.14-7.09-12.94,0,6.75,2.14,56.72-.9,59.98-2.14,2.25-7.31,1.69-9.68.11-12.6-8.33-10.92-96.67-11.59-113.21-3.38.79-10.92,5.4-18.46,6.41l-7.65,1.01c-1.58.79.34,75.51-3.71,90.7-1.69,6.19-7.76,9.68-15.53,7.43-7.2-2.25-8.33-6.64-9-15.08-2.14-28.02-.79-64.93.11-93.52.68-20.14.68-49.07,3.26-68.65.9-6.98,1.24-15.42,9.45-14.18,6.19.9,10.58,6.08,11.7,12.15,1.35,7.2,1.01,15.19,1.69,22.39l.68-.56c.56-.45.11.11.9-.9,4.95-6.19,8.89-15.87,20.48-22.39,5.4-3.04,11.48-4.39,18.34-1.69,6.64,2.59,8.44,5.74,12.49,10.02,3.04-1.8,6.3-4.61,10.13-6.86,3.49-2.03,8.22-4.39,12.49-5.29,10.8-2.25,18.57,6.3,21.38,13.5,5.74-.23,19.02-.34,22.84,2.36,1.46,1.13,4.84,5.06,3.6,8.55-1.24,3.94-6.41,2.25-9.34,3.49h0ZM1010.79,185.58c3.26-.23,14.74-1.69,16.54-3.38.9-1.8,2.25-21.72,2.59-25.66,1.58-15.64,4.95-34.32,8.67-49.4.68-3.15,2.25-8.67,3.83-10.58,2.81-3.6,8.1-1.58,10.47.68,6.08,5.74,5.18,13.73,4.5,23.74-.56,9-1.58,17.89-2.14,26.78-1.24,17.67-2.36,36.01-4.39,53.45-2.48,21.94-4.05,60.32-2.48,82.94.45,6.64,5.29,19.58-9.57,16.43-7.43-1.58-8.1-12.49-8.78-20.26-1.35-17.33-2.36-37.81-2.59-55.25-.23-9.23.23-19.58-.34-28.58-3.71-.11-15.08,1.8-16.66,3.94-1.91,2.48-1.91,14.74-2.25,19.02-.79,9.68,0,32.64-2.36,40.4-1.58,5.51-9,7.43-14.52,4.05-5.4-3.26-5.51-7.76-5.74-15.42-.11-6.3-1.24-35.9-2.93-39.84-3.83.23-5.85,2.03-10.69.68-2.93-.9-5.85-3.15-5.96-6.53-.23-4.95,6.41-6.41,10.69-7.76.79-.23,4.28-1.24,4.73-2.03,1.01-3.38.45-35.34.79-42.54,1.01-20.48,3.26-22.96,5.29-39.16-5.29,0-28.7,1.69-31.73,3.15v45.13c-.79,27.35-2.59,61.22-5.06,88.45-.68,7.2-1.01,14.63-1.46,21.94-.56,7.09.45,16.09-5.85,17.56-8.78,2.03-11.14-3.04-11.59-10.8-1.8-38.15-3.04-76.41-1.24-114.56.34-7.31.79-14.52,1.58-21.72.45-3.83,2.81-18.57,2.25-21.04-3.71.68-7.99,2.81-11.7,3.83-6.75,1.91-8.78-2.59-11.25-3.04-.68,22.73-1.46,45.46-1.91,68.2-.23,13.5,0,56.94-4.84,66.06-4.39,8.33-15.08,9.12-22.06-.34-15.75-21.16-18.91-77.76-22.17-84.18-1.13,16.66-.56,37.92.34,54.58.45,8.89.9,18.01,1.24,26.78.23,6.64,2.59,21.16-1.58,25.1-2.48,2.25-7.65,2.36-10.69,0s-3.26-5.63-3.6-10.35c-.45-8.89-.79-17.78-1.13-26.56-1.13-24.42-1.01-85.41,2.81-108.15,1.24-7.09,3.04-17.89,9.79-18.34,7.76-.45,11.7,7.88,13.84,14.18,4.5,13.5,10.92,50.42,14.85,68.65,1.35,6.19,3.26,16.77,5.51,21.94,1.58-7.99,3.26-55.82,3.83-67.63.23-6.08.9-45.58,4.39-49.07,1.46-1.46,3.94-2.14,6.41-1.13,2.59.9,3.26,2.7,5.06,4.28,12.15-9.34,72.47-11.25,89.92-6.86,4.61,1.13,8.55,4.39,9.45,9,.45,2.36-.79,3.49-1.13,4.84-.11.23.79,20.71.79,23.74,0,16.2-.9,34.77.23,50.64h0ZM814.75,91.5c-3.04-.68-3.71-2.7-9.34-4.73-11.25-4.05-23.41,3.49-31.96,9.12-6.86-4.61-12.72-11.48-26.33-8.55-6.41,1.46-15.53,7.2-19.92,12.38-1.69,1.91-.45,1.8-2.7,2.36-1.91-22.96-21.27-27.01-28.25-19.92-7.31,7.31-6.98,35-7.88,46.7-.56,5.63.56,12.72-.23,18.12l-.9,35.34c-.11,3.26-.68,4.5-.68,8.33l-.45,45.58c0,6.41.34,11.03.45,17.33.34,11.03.56,21.49,9.79,27.01,4.61,2.81,8.67,2.48,15.75,2.48,7.09-5.06,11.59-3.83,12.72-20.26.68-10.35,1.35-20.71,1.69-30.95.23-5.18.45-10.47.68-15.64.23-8.55-.68-7.2,2.81-13.95,1.35-2.7,10.24-20.26,11.48-20.93-.23,11.48,1.58,19.36-1.91,28.81-9.68,25.43-14.85,52.1-14.97,80.12,6.19,2.81,11.14,4.95,16.43,9.12,38.15,30.61,50.19,130.65,40.17,134.93-5.18,2.25-9.23-9.57-10.8-12.94-2.59-5.74-4.95-10.92-7.76-16.66-4.73-9.57-13.05-23.63-22.06-27.01,5.51,19.24,25.55,49.97,38.37,65.27,3.15,3.6,7.88,10.24,11.7,12.6.79-35,3.38-70.22,8.22-104.32.34-2.14,1.35-10.35,2.03-11.82,1.91-4.16,26-11.03,30.5-11.82,17.78-3.49,33.65.9,43.89,10.02,5.18,4.61,8.55,8.1,12.83,15.08,3.6,6.08,6.3,12.38,8.55,19.81,11.48,36.69,7.54,96.89-10.02,132.23-1.8,3.49-3.6,6.08-5.29,9.34l10.24,3.83c11.25,3.38,23.07,6.41,34.77,7.65-.11-8.1-2.03-24.53-2.48-35.34-.9-25.1-.9-50.42.23-75.4.23-6.19.56-12.04.9-18.23.23-4.95,1.35-13.73.9-18.12-7.99,2.93-13.05,8.78-19.92,12.94-3.15-6.98-5.96-23.86-6.64-32.64-.68-7.65-1.58-39.72.9-46.93.56-1.46.9-1.46,2.59-2.48,20.93-12.94,62.34-19.36,86.54-17.67,6.08.34,12.04.9,17.78,2.03,4.28.79,4.39.45,5.85,4.16,5.4,13.39,4.61,30.61,2.7,44.79-1.24,9.12-3.83,25.55-7.31,32.64-8.33-1.46-22.39-4.16-30.83-2.93-2.81,30.27-3.6,126.38.9,154.96,13.05-.79,23.63-3.49,35.56-5.51.56-16.32.23-32.64.9-48.95,1.58-39.27,2.93-78.66,7.65-117.71l2.81-15.75c.56-2.81.45-2.7,2.7-3.94,22.73-12.94,57.28-12.72,85.75-8.1,6.98,1.13,9.23,1.91,10.8,14.18,1.8,15.3-1.46,55.03-7.65,66.62-11.59-.56-18.12-8.22-52.33-4.73l-.79,14.29c7.65-1.13,23.41-4.05,29.15,1.24,2.25,4.05,1.91,27.8,1.69,33.87-.45,10.47-1.24,22.28-4.39,31.62-7.76.79-22.06,2.93-28.36,5.63l.11,14.4c8.44-1.8,33.65-19.47,40.96-24.98,6.53-4.95,12.38-10.02,18.12-15.19,3.15-2.93,5.18-5.85,8.33-8.44,3.15-2.7,5.4-5.51,8.1-8.67,10.02-11.7,18.57-23.63,27.46-38.82,3.26-5.74,20.59-40.51,19.69-46.59-22.62-2.14-32.19,24.31-43.89,38.6-3.15,3.83-7.65,5.51-9-.79-1.69-8.22.68-22.62,2.36-30.38,7.09-33.42,29.26-67.07,61.22-72.47l.11-8.89c-23.41,3.49-14.74-18.34-17.11-34.66.11,8.33-9.68,18.34-20.37,15.53-4.61-1.24-8.1-5.29-10.24-8.22-2.25-3.49-3.6-7.54-5.51-11.25l-.9-1.46c0,11.37,5.51,33.87-7.88,37.81-5.96,1.8-7.99-.23-12.04-1.8-5.29,6.3-8.22,2.7-15.98,6.64-4.61,2.48-8.89,7.76-16.43,4.39-10.69-4.84-14.97-23.29-1.46-27.91.45-34.77-1.24-69.88.11-104.77.34-10.8,1.69-22.17,1.91-32.86-2.25-2.7-3.94-3.15-5.85-6.86-1.46-3.04-2.36-6.75-1.58-10.58,1.58-7.65,8.44-8.78,16.66-9.12-.11-.11-.34-.45-.34-.34l-2.93-2.36c-7.99-5.74-16.09-10.58-24.76-15.3-55.59-30.5-127.95-36.01-188.05-14.74-11.03,3.94-22.06,8.55-31.85,13.84l-21.61,12.94c-3.6,2.48-3.26,3.04-9.12,2.36-1.24-1.8-5.06-6.53-5.51-7.65h0Z" fill="#fff" fill-rule="evenodd"/>
      <path d="M796.41,532.97c-2.36-52.89-.45-130.99,7.99-183.99,1.46-9.23,1.01-7.09,9-10.47,4.5-1.91,9.12-3.6,14.07-4.84,26.67-6.86,43.55,3.26,54.35,18.68,21.27,30.27,19.02,92.73,7.65,131.33-9.12,31.17-28.58,55.25-60.88,55.37-13.17.11-21.04-3.04-32.18-6.08h0ZM778.74,426.52c-6.64-9.68-23.86-66.62-51.2-53-4.73,2.36-14.18,11.59-19.81,16.43-5.51,4.73-13.73,10.92-21.72,14.4-11.59,5.18-19.02,3.04-23.52-6.98-6.64-15.08-5.96-48.16-2.25-65.05,4.5-21.04,14.18-32.97,35.34-37.02,10.58-2.14,22.96-2.59,32.3,1.69,22.28,10.13,36.12,41.98,42.76,65.72,4.84,17.67,9.79,44,8.1,63.81h0ZM1113.87,402.32c-21.94-3.38-26.67-7.43-54.02-3.26l-1.35,25.66c9.9-3.38,19.13-4.84,30.05-2.48,1.13,9.12,2.14,51.77-2.36,57.06-.68.56-.23.34-1.58.68-.34.11-1.46.23-2.03.34-1.24.11-2.48.23-3.83.56-4.28.68-19.13,4.05-21.72,5.4-1.24,9.79,1.13,48.28,1.58,60.77-12.6,3.6-25.32,5.85-39.05,2.14-1.91-47.71,1.91-143.37,7.76-190.97l2.59-15.87c.56-2.93.45-2.59,2.93-3.83,5.18-2.59,11.93-4.95,18.68-6.3,17.33-3.6,39.84-3.38,57.96-.45,1.8.34,3.6.56,5.29.9,2.81.56,2.7.45,3.6,3.15,5.18,16.66-.56,50.64-4.5,66.51h0ZM1136.72,397.14c-2.36-29.82,13.84-68.53,37.81-86.2,13.62-10.02,30.95-11.7,50.98-8.33,18.79,3.04,29.93,10.47,34.66,27.23,4.28,15.53,4.5,42.99-7.43,50.53-17.56,11.14-53.57-20.14-65.16-23.07-27.91-7.09-45.24,35.9-50.87,39.84h0ZM1005.16,369.46c-4.95,0-10.24-1.8-15.08-2.03-4.61-.23-13.17-.56-17.33.11-2.93,30.95-2.81,107.02-.9,139.88.23,5.51,1.58,13.84,1.35,18.91-7.99,4.73-32.07,4.28-41.3.79-2.81-17.11-3.94-59.08-3.6-77.65.34-16.99.68-41.98,2.14-58.97.45-4.84,1.46-14.63,1.24-19.47-4.28.9-8.78,2.93-12.27,4.95-2.93,1.69-8.22,5.74-10.58,6.64-4.84-8.33-7.09-58.41-3.6-68.53,5.06-4.95,28.25-11.48,37.59-13.28,20.26-3.94,36.57-5.63,57.84-3.15,6.75.79,7.43.9,8.44,4.16,6.41,19.13.9,49.74-3.94,67.63h0ZM1112.86,110.18c3.38.56,6.19,4.05,6.53,7.54,1.01,7.76-5.74,4.16-7.76,6.3-1.01,1.24,0,31.28,0,35.9,0,22.62-1.35,49.07-2.36,71.91-.34,5.85-.34,11.7-.68,17.67-.34,5.29-1.13,12.83-.45,18.01,4.84,2.59,9.9,6.19,7.76,13.95-4.84,2.25-7.88-.34-18.01,6.86-7.65,5.4-12.72-4.95-12.49-9.68.34-4.73,5.4-5.85,8.22-7.76.79-4.73.11-48.05-.11-56.38-.34-18.57.11-37.14.68-55.59.23-8.89,1.01-18.01,1.69-26.78.68-8.1-.45-5.29-4.39-9.45-2.25-2.36-4.16-6.08-2.81-10.02,1.69-5.18,18.46-3.6,24.2-2.48h0ZM1160.35,220.46c2.48-12.04,3.04-105.67,5.74-113.77,1.46-4.05,5.18-4.95,8.33-1.91,4.28,4.16,2.25,16.43,2.14,23.52-.45,17.11-.68,34.55-1.13,51.77-.45,13.28-.23,65.83-3.94,76.07-2.7,7.2-10.35,9.9-16.32,3.71-10.02-10.24-15.42-45.35-17.44-62.12-.45-3.83-1.01-7.88-1.58-11.82-.23-1.69-.9-10.02-2.14-11.25-.23,18.23-.34,36.91.34,54.92.56,13.62,1.91,28.92,1.8,42.31-.11,3.71-1.01,6.75-3.38,7.88-3.15,1.46-6.98.23-8.44-1.8-2.7-3.6-2.36-14.18-2.59-19.69-1.46-31.51-1.46-81.03.79-111.63.56-7.88,1.13-18.46,4.05-25.1,4.39-10.13,12.15-3.26,14.97,3.38,6.41,15.08,13.95,83.5,18.79,95.54h0ZM1222.35,128.3c4.05-8.55,10.92-21.38,16.66-26.78,5.63-5.4,12.38-1.58,9.9,4.84-.79,1.8-3.38,4.95-4.5,6.75-1.35,2.03-2.7,4.05-4.05,6.53-2.36,4.28-13.17,26.11-13.05,30.38,12.94,8.78,15.64,38.49,16.32,58.97.34,11.59,1.24,23.41,1.8,35.11.23,5.96.45,12.15,1.13,18.12.45,4.84,2.48,11.7.11,15.64-1.58,2.7-6.86,9.12-12.15,5.74-2.59-1.69-4.05-10.35-4.73-14.18-2.48-16.99-5.74-50.75-6.53-67.97-.23-5.29.34-30.72-3.38-34.44-3.49,12.27-10.69,26.78-11.48,40.85-.68,12.83.56,61.11-8.44,70.11-4.5,4.5-14.52,8.55-14.97-2.14-.9-16.32.34-34.89.79-51.32,1.01-32.41-.23-68.31,4.39-99.93.79-5.85,2.03-17.44,4.73-21.49,4.28-6.75,14.07-5.18,14.63,3.94.68,12.49-1.46,42.09-.34,50.98l13.17-29.71ZM814.75,91.5c.45,1.13,4.28,5.85,5.51,7.65,5.85.68,5.51.11,9.12-2.36l21.61-12.94c9.79-5.29,20.82-9.9,31.85-13.84,60.09-21.27,132.45-15.75,188.05,14.74,8.67,4.73,16.77,9.57,24.76,15.3l2.93,2.36c0-.11.23.23.34.34-8.22.34-15.08,1.46-16.66,9.12-.79,3.83.11,7.54,1.58,10.58,1.91,3.71,3.6,4.16,5.85,6.86-.23,10.69-1.58,22.06-1.91,32.86-1.35,34.89.34,70-.11,104.77-13.5,4.61-9.23,23.07,1.46,27.91,7.54,3.38,11.82-1.91,16.43-4.39,7.76-3.94,10.69-.34,15.98-6.64,4.05,1.58,6.08,3.6,12.04,1.8,13.39-3.94,7.88-26.45,7.88-37.81l.9,1.46c1.91,3.71,3.26,7.76,5.51,11.25,2.14,2.93,5.63,6.98,10.24,8.22,10.69,2.81,20.48-7.2,20.37-15.53,2.36,16.32-6.3,38.15,17.11,34.66l-.11,8.89c-31.96,5.4-54.13,39.05-61.22,72.47-1.69,7.76-4.05,22.17-2.36,30.38,1.35,6.3,5.85,4.61,9,.79,11.7-14.29,21.27-40.74,43.89-38.6.9,6.08-16.43,40.85-19.69,46.59-8.89,15.19-17.44,27.12-27.46,38.82-2.7,3.15-4.95,5.96-8.1,8.67-3.15,2.59-5.18,5.51-8.33,8.44-5.74,5.18-11.59,10.24-18.12,15.19-7.31,5.51-32.52,23.18-40.96,24.98l-.11-14.4c6.3-2.7,20.59-4.84,28.36-5.63,3.15-9.34,3.94-21.16,4.39-31.62.23-6.08.56-29.82-1.69-33.87-5.74-5.29-21.49-2.36-29.15-1.24l.79-14.29c34.21-3.49,40.74,4.16,52.33,4.73,6.19-11.59,9.45-51.32,7.65-66.62-1.58-12.27-3.83-13.05-10.8-14.18-28.47-4.61-63.02-4.84-85.75,8.1-2.25,1.24-2.14,1.13-2.7,3.94l-2.81,15.75c-4.73,39.05-6.08,78.44-7.65,117.71-.68,16.32-.34,32.64-.9,48.95-11.93,2.03-22.51,4.73-35.56,5.51-4.5-28.58-3.71-124.69-.9-154.96,8.44-1.24,22.51,1.46,30.83,2.93,3.49-7.09,6.08-23.52,7.31-32.64,1.91-14.18,2.7-31.4-2.7-44.79-1.46-3.71-1.58-3.38-5.85-4.16-5.74-1.13-11.7-1.69-17.78-2.03-24.2-1.69-65.61,4.73-86.54,17.67-1.69,1.01-2.03,1.01-2.59,2.48-2.48,7.2-1.58,39.27-.9,46.93.68,8.78,3.49,25.66,6.64,32.64,6.86-4.16,11.93-10.02,19.92-12.94.45,4.39-.68,13.17-.9,18.12-.34,6.19-.68,12.04-.9,18.23-1.13,24.98-1.13,50.3-.23,75.4.45,10.8,2.36,27.23,2.48,35.34-11.7-1.24-23.52-4.28-34.77-7.65l-10.24-3.83c1.69-3.26,3.49-5.85,5.29-9.34,17.56-35.34,21.49-95.54,10.02-132.23-2.25-7.43-4.95-13.73-8.55-19.81-4.28-6.98-7.65-10.47-12.83-15.08-10.24-9.12-26.11-13.5-43.89-10.02-4.5.79-28.58,7.65-30.5,11.82-.68,1.46-1.69,9.68-2.03,11.82-4.84,34.1-7.43,69.32-8.22,104.32-3.83-2.36-8.55-9-11.7-12.6-12.83-15.3-32.86-46.03-38.37-65.27,9,3.38,17.33,17.44,22.06,27.01,2.81,5.74,5.18,10.92,7.76,16.66,1.58,3.38,5.63,15.19,10.8,12.94,10.02-4.28-2.03-104.32-40.17-134.93-5.29-4.16-10.24-6.3-16.43-9.12.11-28.02,5.29-54.69,14.97-80.12,3.49-9.45,1.69-17.33,1.91-28.81-1.24.68-10.13,18.23-11.48,20.93-3.49,6.75-2.59,5.4-2.81,13.95-.23,5.18-.45,10.47-.68,15.64-.34,10.24-1.01,20.59-1.69,30.95-1.13,16.43-5.63,15.19-12.72,20.26l.11,5.51c-1.91.11-2.14.45-3.94.56-9.34.68-17.56,1.24-26.33,5.4-8.33,4.05-14.29,9.34-19.13,16.99-8.55,13.17-7.99,29.15-10.02,44-.34,2.93-.11,5.96-.11,8.78-.11,11.93,2.03,30.38,7.31,38.37,12.27,18.68,34.32,3.94,47.83-6.64l14.63-12.6c1.69-1.69,2.81-3.38,5.4-4.05,2.25,4.39,4.05,9.9,6.08,14.4,10.13,22.73,22.62,40.51,37.92,59.53,3.49,4.28,16.99,17.67,17.67,18.57,1.69,2.59.68,5.18.68,8.78,0,6.75-.23,14.29.45,20.14.45,3.83,0,22.62.68,29.93.45,4.28-.11,5.63,3.71,6.86,16.88,5.29,36.12,8.44,52.89,3.04,5.63-1.8,9.34-3.71,13.84-6.75,4.05-2.7,7.65-6.64,11.37-9.23l12.6,4.16c37.59,12.49,81.14,14.52,119.62,7.2,1.58-.23,5.96-1.35,7.09-1.35,3.15,0,2.14,2.81,2.14,6.19,0,2.36-.23,6.08,0,8.33.34,2.81,1.24,3.71,3.71,4.5,10.35,3.38,40.85,1.13,44.56-3.6,1.01-1.35.34-11.93-.11-15.19-.79-5.18-.34-11.37-.34-16.88,2.48-.56,9.23-4.28,11.7-5.63,17.11-8.89,32.97-20.03,47.71-32.41l4.73-4.16c9.45-8.33,17.33-17.89,25.66-27.23,14.4-16.21,24.65-35.79,33.99-55.14,2.03-4.16,9.57-22.06,9.9-25.77,3.04.23,11.14,6.19,13.95,7.76,4.84,2.81,9,4.84,14.52,7.09,32.07,12.83,42.65-1.69,42.76-34.89.11-11.93-2.81-25.1-9.9-34.1-7.76-9.68-23.63-15.98-37.47-16.54-10.8-.56-12.27.9-12.27-3.83s-.79-12.04.23-16.66c.79-3.04,1.91-5.06,2.36-8.22l2.48-19.24c.11-1.91-.11-3.49.11-5.4l1.01-15.19c0-4.39.56-6.75.56-10.58,0-3.49-.23-7.76,0-11.14.23-3.26,1.58-6.53,1.69-9.45h1.13c0,13.73,2.25,37.47,4.05,50.42,1.8,12.94,1.8,40.4,13.17,41.98,9.34,1.24,14.74-4.16,17.44-9.79,3.26-6.53.45-17.33-.11-24.76-.23-2.14,0-4.5-.11-6.64l-1.58-25.55c-.23-2.48.11-4.84-.11-7.2-.9-7.54-.79-17.89-1.58-25.77-1.13-11.48-3.6-23.07-8.33-33.42-6.19-13.5-9.68-3.15,1.8-27.01.9-1.8,1.13-3.04,2.03-4.61l7.99-12.72c3.83-5.74,5.4-14.97-2.81-18.68-14.74-6.64-24.76,18.68-30.83,29.15-.56,1.01-.56.79-1.13,2.14-1.24,2.25.34.9-1.58,2.36,0-11.37,3.71-28.25-7.99-33.2-7.09-3.04-14.97,0-18.46,6.75-4.39,8.78-4.95,21.83-5.85,31.96-.23,1.91-.11,1.58-1.13,2.81,0-8.33,1.13-18.23.56-26.78-.9-12.04-17.33-17.11-21.94-5.18-2.48,6.41-2.36,29.48-3.15,38.6h-1.13c-.79-3.26-4.73-5.74-6.08-8.89-2.25-5.18-4.16-20.26-15.19-22.62-2.36-.45-5.29.34-7.31-.45l-20.71-16.66c-34.1-24.53-71.57-40.51-113.44-46.36-4.39-.56-9.45-1.24-13.73-1.35-9.45-.11-20.14-1.91-29.15-.68-4.61.68-9.45.23-14.18.9-3.94.45-8.89,1.01-13.28,1.58-24.08,3.6-48.5,10.58-70,21.38-10.24,5.18-19.81,10.24-29.15,16.43-2.03,1.35-7.65,5.51-9.57,6.08h0Z" fill-rule="evenodd"/>
      <path d="M1010.79,185.58c-1.13-15.87-.23-34.44-.23-50.64,0-3.04-.9-23.52-.79-23.74.34-1.35,1.58-2.48,1.13-4.84-.9-4.61-4.84-7.88-9.45-9-17.44-4.39-77.76-2.48-89.92,6.86-1.8-1.58-2.48-3.38-5.06-4.28-2.48-1.01-4.95-.34-6.41,1.13-3.49,3.49-4.16,42.99-4.39,49.07-.56,11.82-2.25,59.64-3.83,67.63-2.25-5.18-4.16-15.75-5.51-21.94-3.94-18.23-10.35-55.14-14.85-68.65-2.14-6.3-6.08-14.63-13.84-14.18-6.75.45-8.55,11.25-9.79,18.34-3.83,22.73-3.94,83.73-2.81,108.15.34,8.78.68,17.67,1.13,26.56.34,4.73.56,7.99,3.6,10.35s8.22,2.25,10.69,0c4.16-3.94,1.8-18.46,1.58-25.1-.34-8.78-.79-17.89-1.24-26.78-.9-16.66-1.46-37.92-.34-54.58,3.26,6.41,6.41,63.02,22.17,84.18,6.98,9.45,17.67,8.67,22.06.34,4.84-9.12,4.61-52.55,4.84-66.06.45-22.73,1.24-45.46,1.91-68.2,2.48.45,4.5,4.95,11.25,3.04,3.71-1.01,7.99-3.15,11.7-3.83.56,2.48-1.8,17.22-2.25,21.04-.79,7.2-1.24,14.4-1.58,21.72-1.8,38.15-.56,76.41,1.24,114.56.45,7.76,2.81,12.83,11.59,10.8,6.3-1.46,5.29-10.47,5.85-17.56.45-7.31.79-14.74,1.46-21.94,2.48-27.23,4.28-61.11,5.06-88.45v-45.13c3.04-1.46,26.45-3.15,31.73-3.15-2.03,16.2-4.28,18.68-5.29,39.16-.34,7.2.23,39.16-.79,42.54-.45.79-3.94,1.8-4.73,2.03-4.28,1.35-10.92,2.81-10.69,7.76.11,3.38,3.04,5.63,5.96,6.53,4.84,1.35,6.86-.45,10.69-.68,1.69,3.94,2.81,33.54,2.93,39.84.23,7.65.34,12.15,5.74,15.42,5.51,3.38,12.94,1.46,14.52-4.05,2.36-7.76,1.58-30.72,2.36-40.4.34-4.28.34-16.54,2.25-19.02,1.58-2.14,12.94-4.05,16.66-3.94.56,9,.11,19.36.34,28.58.23,17.44,1.24,37.92,2.59,55.25.68,7.76,1.35,18.68,8.78,20.26,14.85,3.15,10.02-9.79,9.57-16.43-1.58-22.62,0-60.99,2.48-82.94,2.03-17.44,3.15-35.79,4.39-53.45.56-8.89,1.58-17.78,2.14-26.78.68-10.02,1.58-18.01-4.5-23.74-2.36-2.25-7.65-4.28-10.47-.68-1.58,1.91-3.15,7.43-3.83,10.58-3.71,15.08-7.09,33.76-8.67,49.4-.34,3.94-1.69,23.86-2.59,25.66-1.8,1.69-13.28,3.15-16.54,3.38h0Z" fill-rule="evenodd"/>
      <path d="M803.84,242.07c-9.12-18.01-12.27-26.11-20.48-44.68-1.8-4.28.11-4.5,2.25-6.98,5.74-6.86,8.78-10.02,13.95-18.34,7.99-12.83,12.04-26.11,13.95-29.15.56,6.08-1.13,20.14-1.35,27.23-1.13,27.35.79,58.63.11,86.31l-8.44-14.4ZM720.45,161.72c2.59-16.77,19.24-46.14,30.05-50.64-1.46,10.24-1.24,30.61-5.18,35.11-3.71,4.05-16.54,14.74-24.87,15.53h0ZM768.95,170.72c-.45-3.49.11-8.55,0-12.38,0-9.57,7.76-8.89,9.68-27.23.9-8.67-3.04-8.78,7.54-16.88,2.7-2.14,11.03-8.78,16.09-7.54,1.46,10.13-8.78,29.03-12.83,35.79-5.06,8.55-9.57,14.18-14.97,21.72-.9,1.35-1.8,2.48-2.59,3.6-1.24,1.69-.9,2.03-2.93,2.93h0ZM833.43,120.31c2.93-1.24,8.1.45,9.34-3.49,1.24-3.49-2.14-7.43-3.6-8.55-3.83-2.7-17.11-2.59-22.84-2.36-2.81-7.2-10.58-15.75-21.38-13.5-4.28.9-9,3.26-12.49,5.29-3.83,2.25-7.09,5.06-10.13,6.86-4.05-4.28-5.85-7.43-12.49-10.02-6.86-2.7-12.94-1.35-18.34,1.69-11.59,6.53-15.53,16.2-20.48,22.39-.79,1.01-.34.45-.9.9l-.68.56c-.68-7.2-.34-15.19-1.69-22.39-1.13-6.08-5.51-11.25-11.7-12.15-8.22-1.24-8.55,7.2-9.45,14.18-2.59,19.58-2.59,48.5-3.26,68.65-.9,28.58-2.25,65.5-.11,93.52.68,8.44,1.8,12.83,9,15.08,7.76,2.25,13.84-1.24,15.53-7.43,4.05-15.19,2.14-89.92,3.71-90.7l7.65-1.01c7.54-1.01,15.08-5.63,18.46-6.41.68,16.54-1.01,104.88,11.59,113.21,2.36,1.58,7.54,2.14,9.68-.11,3.04-3.26.9-53.23.9-59.98,1.8,1.8,5.4,10.13,7.09,12.94,5.4,9.57,16.77,28.58,22.84,37.25,2.03,2.81,2.14,3.04,3.6,6.41,1.91,4.16,3.26,2.93,9.12,10.8,17.22,22.96,28.25,1.8,24.76-3.49-1.69-2.14-3.04-.68-5.63-2.7-1.46-1.13-2.7-2.7-3.71-4.61,3.26-.56,9.34-.79,11.14-2.7.9-3.94-.68-7.09-2.48-9.34-2.03-2.36-4.61-2.7-7.31-4.28-.34-4.73.34-13.5.68-18.57,1.8-29.6,3.15-59.87,3.71-89.58.11-5.63-1.13-33.99-.11-36.35h0Z" fill-rule="evenodd"/>
      <path d="M831.07,482c-2.25-7.54.23-48.62,1.01-58.63.79-8.89,1.35-19.13,2.81-27.8.79-4.05,7.09-4.73,10.92-4.5,4.95.22,8.1,3.04,9.9,5.74,10.24,15.3,12.38,87.66-24.65,85.19h0ZM796.41,532.97c11.14,3.04,19.02,6.19,32.18,6.08,32.3-.11,51.77-24.19,60.88-55.37,11.37-38.6,13.62-101.06-7.65-131.33-10.8-15.42-27.68-25.55-54.35-18.68-4.95,1.24-9.57,2.93-14.07,4.84-7.99,3.38-7.54,1.24-9,10.47-8.44,53-10.35,131.1-7.99,183.99h0Z" fill="#fefd01" fill-rule="evenodd"/>
      <path d="M1005.16,369.46c4.84-17.89,10.35-48.5,3.94-67.63-1.01-3.26-1.69-3.38-8.44-4.16-21.27-2.48-37.59-.79-57.84,3.15-9.34,1.8-32.52,8.33-37.59,13.28-3.49,10.13-1.24,60.21,3.6,68.53,2.36-.9,7.65-4.95,10.58-6.64,3.49-2.03,7.99-4.05,12.27-4.95.23,4.84-.79,14.63-1.24,19.47-1.46,16.99-1.8,41.98-2.14,58.97-.34,18.57.79,60.54,3.6,77.65,9.23,3.49,33.31,3.94,41.3-.79.23-5.06-1.13-13.39-1.35-18.91-1.91-32.86-2.03-108.93.9-139.88,4.16-.68,12.72-.34,17.33-.11,4.84.23,10.13,2.03,15.08,2.03h0Z" fill="#ff1cff" fill-rule="evenodd"/>
      <path d="M1113.87,402.32c3.94-15.87,9.68-49.85,4.5-66.51-.9-2.7-.79-2.59-3.6-3.15-1.69-.34-3.49-.56-5.29-.9-18.12-2.93-40.63-3.15-57.96.45-6.75,1.35-13.5,3.71-18.68,6.3-2.48,1.24-2.36.9-2.93,3.83l-2.59,15.87c-5.85,47.6-9.68,143.26-7.76,190.97,13.73,3.71,26.45,1.46,39.05-2.14-.45-12.49-2.81-50.98-1.58-60.77,2.59-1.35,17.44-4.73,21.72-5.4,1.35-.34,2.59-.45,3.83-.56.56-.11,1.69-.23,2.03-.34,1.35-.34.9-.11,1.58-.68,4.5-5.29,3.49-47.94,2.36-57.06-10.92-2.36-20.14-.9-30.05,2.48l1.35-25.66c27.35-4.16,32.07-.11,54.02,3.26h0Z" fill="#5afefe" fill-rule="evenodd"/>
      <path d="M778.74,426.52c1.69-19.81-3.26-46.14-8.1-63.81-6.64-23.74-20.48-55.59-42.76-65.72-9.34-4.28-21.72-3.83-32.3-1.69-21.16,4.05-30.83,15.98-35.34,37.02-3.71,16.88-4.39,49.97,2.25,65.05,4.5,10.02,11.93,12.15,23.52,6.98,7.99-3.49,16.21-9.68,21.72-14.4,5.63-4.84,15.08-14.07,19.81-16.43,27.35-13.62,44.56,43.33,51.2,53h0Z" fill="#fefd01" fill-rule="evenodd"/>
      <path d="M1209.19,158.01c-1.13-8.89,1.01-38.49.34-50.98-.56-9.12-10.35-10.69-14.63-3.94-2.7,4.05-3.94,15.64-4.73,21.49-4.61,31.62-3.38,67.52-4.39,99.93-.45,16.43-1.69,35-.79,51.32.45,10.69,10.47,6.64,14.97,2.14,9-9,7.76-57.28,8.44-70.11.79-14.07,7.99-28.58,11.48-40.85,3.71,3.71,3.15,29.15,3.38,34.44.79,17.22,4.05,50.98,6.53,67.97.68,3.83,2.14,12.49,4.73,14.18,5.29,3.38,10.58-3.04,12.15-5.74,2.36-3.94.34-10.8-.11-15.64-.68-5.96-.9-12.15-1.13-18.12-.56-11.7-1.46-23.52-1.8-35.11-.68-20.48-3.38-50.19-16.32-58.97-.11-4.28,10.69-26.11,13.05-30.38,1.35-2.48,2.7-4.5,4.05-6.53,1.13-1.8,3.71-4.95,4.5-6.75,2.48-6.41-4.28-10.24-9.9-4.84-5.74,5.4-12.6,18.23-16.66,26.78l-13.17,29.71Z" fill="#fefefe" fill-rule="evenodd"/>
      <path d="M1136.72,397.14c5.63-3.94,22.96-46.93,50.87-39.84,11.59,2.93,47.6,34.21,65.16,23.07,11.93-7.54,11.7-35,7.43-50.53-4.73-16.77-15.87-24.2-34.66-27.23-20.03-3.38-37.36-1.69-50.98,8.33-23.97,17.67-40.18,56.38-37.81,86.2h0Z" fill="#5afefe" fill-rule="evenodd"/>
      <path d="M1160.35,220.46c-4.84-12.04-12.38-80.46-18.79-95.54-2.81-6.64-10.58-13.5-14.97-3.38-2.93,6.64-3.49,17.22-4.05,25.1-2.25,30.61-2.25,80.12-.79,111.63.23,5.51-.11,16.09,2.59,19.69,1.46,2.03,5.29,3.26,8.44,1.8,2.36-1.13,3.26-4.16,3.38-7.88.11-13.39-1.24-28.7-1.8-42.31-.68-18.01-.56-36.69-.34-54.92,1.24,1.24,1.91,9.57,2.14,11.25.56,3.94,1.13,7.99,1.58,11.82,2.03,16.77,7.43,51.88,17.44,62.12,5.96,6.19,13.62,3.49,16.32-3.71,3.71-10.24,3.49-62.79,3.94-76.07.45-17.22.68-34.66,1.13-51.77.11-7.09,2.14-19.36-2.14-23.52-3.15-3.04-6.86-2.14-8.33,1.91-2.7,8.1-3.26,101.73-5.74,113.77h0Z" fill="#fefefe" fill-rule="evenodd"/>
      <path d="M1093.61,270.88c-2.81,1.91-7.88,3.04-8.22,7.76-.23,4.73,4.84,15.08,12.49,9.68,10.13-7.2,13.17-4.61,18.01-6.86,2.14-7.76-2.93-11.37-7.76-13.95-.68-5.18.11-12.72.45-18.01.34-5.96.34-11.82.68-17.67,1.01-22.84,2.36-49.29,2.36-71.91,0-4.61-1.01-34.66,0-35.9,2.03-2.14,8.78,1.46,7.76-6.3-.34-3.49-3.15-6.98-6.53-7.54-5.74-1.13-22.51-2.7-24.2,2.48-1.35,3.94.56,7.65,2.81,10.02,3.94,4.16,5.06,1.35,4.39,9.45-.68,8.78-1.46,17.89-1.69,26.78-.56,18.46-1.01,37.02-.68,55.59.23,8.33.9,51.65.11,56.38h0Z" fill="#fefefe" fill-rule="evenodd"/>
      <path d="M812.28,256.48c.68-27.68-1.24-58.97-.11-86.31.23-7.09,1.91-21.16,1.35-27.23-1.91,3.04-5.96,16.32-13.95,29.15-5.18,8.33-8.22,11.48-13.95,18.34-2.14,2.48-4.05,2.7-2.25,6.98,8.22,18.57,11.37,26.67,20.48,44.68l8.44,14.4Z" fill="#fefefe" fill-rule="evenodd"/>
      <path d="M835.57,476.59c6.3,1.35,12.27-6.86,14.29-10.8,8.67-16.66,9.68-52.89,2.36-65.05-1.69-2.93-3.71-4.84-7.99-4.61-5.51.11-4.61,2.36-5.18,7.65-.9,7.76-1.58,15.53-2.14,23.41-1.13,16.77-1.8,32.41-1.35,49.4h0Z" fill="#fefefe" fill-rule="evenodd"/>
      <path d="M835.57,476.59c-.45-16.99.23-32.64,1.35-49.4.56-7.88,1.24-15.64,2.14-23.41.56-5.29-.34-7.54,5.18-7.65,4.28-.23,6.3,1.69,7.99,4.61,7.31,12.15,6.3,48.39-2.36,65.05-2.03,3.94-7.99,12.15-14.29,10.8h0ZM831.07,482c37.02,2.48,34.89-69.88,24.65-85.19-1.8-2.7-4.95-5.51-9.9-5.74-3.83-.23-10.13.45-10.92,4.5-1.46,8.67-2.03,18.91-2.81,27.8-.79,10.02-3.26,51.09-1.01,58.63h0Z" fill-rule="evenodd"/>
      <path d="M768.95,170.72c2.03-.9,1.69-1.24,2.93-2.93.79-1.13,1.69-2.25,2.59-3.6,5.4-7.54,9.9-13.17,14.97-21.72,4.05-6.75,14.29-25.66,12.83-35.79-5.06-1.24-13.39,5.4-16.09,7.54-10.58,8.1-6.64,8.22-7.54,16.88-1.91,18.34-9.68,17.67-9.68,27.23.11,3.83-.45,8.89,0,12.38h0Z" fill="#fefefe" fill-rule="evenodd"/>
      <path d="M720.45,161.72c8.33-.79,21.16-11.48,24.87-15.53,3.94-4.5,3.71-24.87,5.18-35.11-10.8,4.5-27.46,33.87-30.05,50.64h0Z" fill="#fefefe" fill-rule="evenodd"/>
      <path d="M1080.34,200.66c3.94-12.83-14.29-17.78-17.56-5.85-3.49,12.49,13.62,18.91,17.56,5.85h0Z" fill="#fe3310" fill-rule="evenodd"/>
      <path d="M1080.34,200.66c-3.94,13.05-21.04,6.64-17.56-5.85,3.26-11.93,21.49-6.98,17.56,5.85h0ZM1058.73,200.1c.79,6.64,7.31,12.72,15.19,11.25,6.19-1.01,11.7-7.65,10.58-15.53-2.59-17.22-27.91-14.85-25.77,4.28h0Z" fill="#040404" fill-rule="evenodd"/>
    </g>
  </g>
</svg>