<?xml version="1.0" encoding="UTF-8"?>
<!DOCTYPE svg PUBLIC "-//W3C//DTD SVG 1.1//EN" "http://www.w3.org/Graphics/SVG/1.1/DTD/svg11.dtd">
<!-- Creator: CorelDRAW -->
<svg xmlns="http://www.w3.org/2000/svg" xml:space="preserve" width="500px" height="500px" version="1.1" shape-rendering="geometricPrecision" text-rendering="geometricPrecision" image-rendering="optimizeQuality" fill-rule="evenodd" clip-rule="evenodd"
viewBox="0 0 500 500"
 xmlns:xlink="http://www.w3.org/1999/xlink"
 xmlns:xodm="http://www.corel.com/coreldraw/odm/2003">
 <g id="Capa_x0020_1">
  <metadata id="CorelCorpID_0Corel-Layer"/>
  <g id="_2915274660864">
   <path fill="#E9EAE5" d="M290.34 186.48c-5.17,20.2 -25.89,39.09 -53.09,32.23 -19.98,-5.03 -38.63,-25.87 -32.06,-53.07 4.92,-20.39 25.96,-38.44 53.06,-32.15 20.42,4.74 38.76,26.92 32.09,52.99zm-103 -92.47l-2.24 4.26c-7.54,16.33 -12.97,45.49 -13.83,63.64 -0.22,4.64 -1.31,7.3 -0.95,13.23 0.28,4.66 2.25,7.9 0.01,12.13l2.28 13.1c0.57,4.6 1.3,9.28 2.11,13.9 1.55,8.84 3.5,18.4 6.04,26.05 4.04,18.64 27.28,74.69 27.36,75.58l79.35 0.19 7.29 -18.41c5.94,-13.83 13.41,-33.31 17.62,-47.56 1.18,-4.01 1.25,-6.73 3.07,-9.8 1.1,-8.32 3.92,-17.15 5.45,-26.03 0.78,-4.49 3.01,-24.98 4.35,-27.07 -2.14,-3.91 -0.55,-8.51 -0.11,-12.24 0.63,-5.37 -0.69,-7.66 -0.83,-13.06 -0.38,-15.09 -4.47,-33.86 -8.61,-48.07 -1,-3.4 -1.83,-7.22 -3.16,-11.01 -0.85,-2.43 -3.2,-7.91 -4.29,-9.56 -9.16,7.19 -12.63,10.94 -25.24,16 -21.92,8.78 -48.84,8.53 -70.39,0.01 -17.1,-6.76 -20.53,-13.12 -25.28,-15.28z"/>
   <path fill="#F05F38" d="M187.34 94.01c4.75,2.16 8.18,8.52 25.28,15.28 21.55,8.52 48.47,8.77 70.39,-0.01 12.61,-5.06 16.08,-8.81 25.24,-16 -2.94,-14.7 -26.41,-45.18 -37.56,-57.22 -3.85,-4.15 -18.41,-20.56 -22.9,-20.56 -2.97,0 -19.68,16.41 -22.53,19.98 -1.47,1.83 -2.58,2.59 -4.14,4.35 -1.71,1.92 -2,2.69 -3.8,4.71 -8.18,9.18 -29.2,39.62 -29.98,49.47z"/>
   <path fill="#EE6038" d="M262.91 357.18c4.79,2.93 7.03,27.08 -4.08,32.63 -1.2,-4.63 -1.41,-7.23 -5.13,-8.67 1.08,13.36 -2.87,21.2 -12.84,25.64 0.01,-0.04 9.76,-17.86 -1.57,-21.96 -3.08,6.61 -1.02,4.52 -6.11,8.98 -0.68,-11.68 -0.25,-10.45 -5.43,-18.12 -4.29,-6.37 -4.48,-9.66 -2.63,-18.16 5.78,-1.5 31.61,-1.47 37.79,-0.34zm-39.68 0.28c-19.4,10.27 -25.43,25.25 -25.52,47.25 -0.05,11.28 7.98,38 14.34,48.95 1.93,3.33 1.1,3.95 4.57,4.88 0,-8.25 -4.46,-31.5 10.39,-34.96 -1.74,7.48 -2.9,11.29 -1.07,19.96 1.15,5.44 4.05,13.04 6.99,16.63 4.86,5.96 20.04,16.09 29.98,16.31 -3.85,-5.75 -17.9,-17.17 -13.21,-35.88 0.67,-2.67 1.45,-3.91 2.75,-5.75 1.82,-2.6 2,-3.4 5.74,-3.71 0.25,11.69 17.81,28.86 25.5,34.01 -1.1,-4.71 -11.92,-17.39 -13.03,-26.68 -1.12,-9.37 8.93,-20.99 12.66,-26.6 7.3,-10.97 9.21,-16.63 5.32,-31.02 -2.51,-9.27 -8.85,-19.15 -17.23,-23.35 -5.03,-1.67 -43.3,-1.76 -48.18,-0.04z"/>
   <path fill="#262F31" d="M315.45 240.32c12.08,6.49 25.87,33.85 29.42,50.29 3.83,17.74 -0.96,28.52 10.68,28.99 10.25,0.41 12.96,-15.38 15.43,-25.05 9.38,-36.68 -3.09,-76.55 -32.88,-99.19 -4.2,-3.19 -8.43,-5.24 -12.85,-8.14 -1.34,2.09 -3.57,22.58 -4.35,27.07 -1.53,8.88 -4.35,17.71 -5.45,26.03z"/>
   <path fill="#262F31" d="M180.76 240.32c-2.54,-7.65 -4.49,-17.21 -6.04,-26.05 -0.81,-4.62 -1.54,-9.3 -2.11,-13.9l-2.28 -13.1c-9.03,5.66 -15.46,9.44 -22.92,16.91 -3.26,3.26 -6.11,7.12 -8.94,10.89 -14.94,19.94 -20.29,52.29 -13.68,80.24 2.21,9.34 5.76,24.99 15.19,24.34 12.2,-0.83 6.76,-12.05 10.56,-29.22 3.13,-14.1 19.76,-47.36 30.22,-50.11z"/>
   <path fill="#292E31" d="M232.28 188.88c-3.41,-2.77 -6.09,-4.25 -8.05,-9.99 -1.79,-5.25 -1.38,-10.96 1.33,-15.58 5.15,-8.78 13.62,-12.16 26,-7.69 -8.13,4.29 -11.99,1.26 -18.19,10.73 -6.52,9.97 -1.76,14.28 -1.09,22.53zm11.51 -44.4c-43.91,7.44 -32.51,68.62 8.52,63.47 15.68,-1.97 29.89,-16.88 27.4,-36.44 -1.99,-15.62 -17.56,-30.15 -35.92,-27.03z"/>
   <path fill="#ED6138" d="M243.79 144.48c18.36,-3.12 33.93,11.41 35.92,27.03 2.49,19.56 -11.72,34.47 -27.4,36.44 -41.03,5.15 -52.43,-56.03 -8.52,-63.47zm46.55 42c6.67,-26.07 -11.67,-48.25 -32.09,-52.99 -27.1,-6.29 -48.14,11.76 -53.06,32.15 -6.57,27.2 12.08,48.04 32.06,53.07 27.2,6.86 47.92,-12.03 53.09,-32.23z"/>
   <path fill="#EE6038" d="M205.28 336.22l85.02 -0.14c0,-4.15 -1.89,-16.36 -2.83,-19.99l-79.35 -0.19c-1.05,4.5 -2.84,15.21 -2.84,20.32z"/>
   <path fill="#292E31" d="M223.23 357.46c4.88,-1.72 43.15,-1.63 48.18,0.04 0.19,-0.13 0.5,-0.54 0.6,-0.36 0.01,0.02 9.63,-3.69 12.42,-6.5 3.58,-3.59 5.87,-7.64 5.87,-14.56l-85.02 0.14c0,17.17 13.95,17.76 17.95,21.24z"/>
   <path fill="#FBAD4B" d="M233.18 393.8c5.09,-4.46 3.03,-2.37 6.11,-8.98 11.33,4.1 1.58,21.92 1.57,21.96 9.97,-4.44 13.92,-12.28 12.84,-25.64 3.72,1.44 3.93,4.04 5.13,8.67 11.11,-5.55 8.87,-29.7 4.08,-32.63 -6.18,-1.13 -32.01,-1.16 -37.79,0.34 -1.85,8.5 -1.66,11.79 2.63,18.16 5.18,7.67 4.75,6.44 5.43,18.12z"/>
   <path fill="#F4F8F6" d="M232.28 188.88c-0.67,-8.25 -5.43,-12.56 1.09,-22.53 6.2,-9.47 10.06,-6.44 18.19,-10.73 -12.38,-4.47 -20.85,-1.09 -26,7.69 -2.71,4.62 -3.12,10.33 -1.33,15.58 1.96,5.74 4.64,7.22 8.05,9.99z"/>
  </g>
 </g>
</svg>
