<?xml version="1.0" encoding="UTF-8"?>
<svg xmlns="http://www.w3.org/2000/svg" viewBox="0 0 499 500">
  <g id="Capa_2" data-name="Capa 2">
    <rect width="499" height="500" fill="#ff5311"/>
  </g>
  <g id="Capa_3" data-name="Capa 3">
    <g opacity=".38">
      <rect x="71.45" y="167.67" width="355.09" height="164.67" fill="none"/>
      <path d="M119.94,229.84v-52.35h9.91v52.35h-9.91Z" fill="#fff"/>
      <path d="M142.55,229.84v-52.35h14.1l7.56,25.42c.7,2.27,1.29,4.5,1.78,6.68.48,2.18.85,4.3,1.11,6.36.42-1.95.9-3.94,1.44-5.99.54-2.05,1.2-4.35,1.97-6.91l7.7-25.56h13.54v52.35h-8.44v-43.91c-.45,1.95-.93,3.88-1.44,5.8-.52,1.92-1.07,3.84-1.65,5.77l-9.56,32.34h-7.21l-9.28-32.34c-.96-3.38-1.65-5.84-2.06-7.4-.41-1.56-.76-2.95-1.04-4.17v43.91h-8.51Z" fill="#fff"/>
      <path d="M197.92,229.84l15.79-52.35h12.3l15.75,52.35h-9.84l-3.23-11.46h-18.07l-3.34,11.46h-9.35ZM212.96,210.05h13.32l-6.68-23.41-6.64,23.41Z" fill="#fff"/>
      <path d="M279.02,229.84l-.53-5.48c-1.64,2.18-3.59,3.79-5.84,4.82s-4.91,1.55-7.98,1.55c-6.23,0-11.12-2.44-14.64-7.31-3.53-4.87-5.29-11.64-5.29-20.29s1.9-14.72,5.71-19.34c3.81-4.62,9.12-6.93,15.94-6.93,4.69,0,8.61,1.14,11.76,3.41,3.15,2.27,5.38,5.55,6.7,9.84l-8.93,2.21c-1.05-2.46-2.38-4.29-3.97-5.48s-3.52-1.79-5.77-1.79c-3.75,0-6.6,1.58-8.54,4.73-1.95,3.15-2.92,7.8-2.92,13.94s.97,10.44,2.9,13.61,4.69,4.75,8.28,4.75c2.81,0,5.14-.94,6.98-2.81,1.84-1.88,2.97-4.46,3.39-7.77h-9.81v-8.23h19.51v26.58h-6.96Z" fill="#fff"/>
      <path d="M296.36,229.84v-52.35h34v8.51h-24.19v12.38h17.61v8.37h-17.61v14.17h25.24v8.93h-35.05Z" fill="#fff"/>
      <path d="M339.28,229.84v-52.35h10.51l15.05,26.3c1.15,2.04,2.21,4.1,3.2,6.19.98,2.09,1.89,4.2,2.71,6.33-.26-1.55-.45-3.2-.56-4.97-.12-1.77-.18-3.66-.18-5.68v-28.16h9.14v52.35h-9.14l-16.35-27c-.89-1.52-1.83-3.35-2.83-5.48-1-2.13-2.02-4.5-3.08-7.1.23,1.43.4,3,.51,4.71.11,1.71.16,3.69.16,5.94v28.93h-9.14Z" fill="#fff"/>
      <path d="M89.25,316.24v-52.35h33.05v8.51h-23.1v12.3h17.47v8.51h-17.47v23.03h-9.95Z" fill="#fff"/>
      <path d="M121.14,316.24l15.79-52.35h12.3l15.75,52.35h-9.84l-3.23-11.46h-18.07l-3.34,11.46h-9.35ZM136.18,296.45h13.32l-6.68-23.41-6.64,23.41Z" fill="#fff"/>
      <path d="M171.06,316.24v-52.35h10.02v43.42h22.08v8.93h-32.1Z" fill="#fff"/>
      <path d="M214.62,316.24v-43.7h-13.75v-8.65h37.44v8.65h-13.75v43.7h-9.95Z" fill="#fff"/>
      <path d="M235.43,316.24l15.79-52.35h12.3l15.75,52.35h-9.84l-3.23-11.46h-18.07l-3.34,11.46h-9.35ZM250.48,296.45h13.32l-6.68-23.41-6.64,23.41Z" fill="#fff"/>
      <path d="M285.28,316.24v-52.35h10.51l15.05,26.3c1.15,2.04,2.21,4.1,3.2,6.19s1.89,4.2,2.71,6.33c-.26-1.55-.45-3.21-.56-4.97s-.18-3.66-.18-5.68v-28.16h9.14v52.35h-9.14l-16.35-27c-.89-1.52-1.83-3.35-2.83-5.48s-2.02-4.5-3.08-7.1c.23,1.43.4,3,.51,4.71s.16,3.69.16,5.94v28.93h-9.14Z" fill="#fff"/>
      <path d="M346.1,316.24v-43.7h-13.75v-8.65h37.44v8.65h-13.75v43.7h-9.95Z" fill="#fff"/>
      <path d="M377.36,316.24v-52.35h34v8.51h-24.19v12.38h17.61v8.37h-17.61v14.17h25.24v8.93h-35.05Z" fill="#fff"/>
    </g>
  </g>
</svg>